HIERARCHY
ROOT Bip001_Pelvis
{
  OFFSET 33.2923 95.8902 -28.781
  CHANNELS 6 Xposition Yposition Zposition Zrotation Xrotation Yrotation
  JOINT Bip001_Spine
  {
    OFFSET 1.4188e-005 10.2191 -0.0116013
    CHANNELS 3 Zrotation Xrotation Yrotation
    JOINT Bip001_L_Thigh
    {
      OFFSET 11.0458 -10.2192 0.0116197
      CHANNELS 3 Zrotation Xrotation Yrotation
      JOINT Bip001_L_Calf
      {
        OFFSET -0.707118 -44.0221 0.360014
        CHANNELS 3 Zrotation Xrotation Yrotation
        JOINT Bip001_L_Foot
        {
          OFFSET -0.651902 -40.5938 -3.56146
          CHANNELS 3 Zrotation Xrotation Yrotation
          JOINT Bip001_L_Toe0
          {
            OFFSET 0.0530839 -10.2181 13.1504
            CHANNELS 3 Zrotation Xrotation Yrotation
            End Site
            {
              OFFSET -1.02532e-005 0 7.55606
            }
          }
        }
      }
    }
    JOINT Bip001_R_Thigh
    {
      OFFSET -11.0458 -10.2191 0.0115893
      CHANNELS 3 Zrotation Xrotation Yrotation
      JOINT Bip001_R_Calf
      {
        OFFSET 0.706994 -44.0221 0.35984
        CHANNELS 3 Zrotation Xrotation Yrotation
        JOINT Bip001_R_Foot
        {
          OFFSET 0.651786 -40.5938 -3.5613
          CHANNELS 3 Zrotation Xrotation Yrotation
          JOINT Bip001_R_Toe0
          {
            OFFSET -0.0531479 -10.2181 13.1504
            CHANNELS 3 Zrotation Xrotation Yrotation
            End Site
            {
              OFFSET -1.02894e-005 0 7.55606
            }
          }
        }
      }
    }
    JOINT Bip001_Spine1
    {
      OFFSET 1.87041e-005 14.5736 1.08638
      CHANNELS 3 Zrotation Xrotation Yrotation
      JOINT Bip001_Spine2
      {
        OFFSET 2.24614e-005 14.5058 -1.69078
        CHANNELS 3 Zrotation Xrotation Yrotation
        JOINT Bip001_Neck
        {
          OFFSET 2.20278e-005 15.3945 -0.489414
          CHANNELS 3 Zrotation Xrotation Yrotation
          JOINT Bip001_L_Clavicle
          {
            OFFSET 6.06036 -0.000579998 0.00836775
            CHANNELS 3 Zrotation Xrotation Yrotation
            JOINT Bip001_L_UpperArm
            {
              OFFSET 11.5509 -0.0600302 0.00193952
              CHANNELS 3 Zrotation Xrotation Yrotation
              JOINT Bip001_L_Forearm
              {
                OFFSET 25.9523 0.0806089 -2.15551
                CHANNELS 3 Zrotation Xrotation Yrotation
                JOINT Bip001_L_Hand
                {
                  OFFSET 32.2476 0.153767 1.63968
                  CHANNELS 3 Zrotation Xrotation Yrotation
                  JOINT Bip001_L_Finger0
                  {
                    OFFSET 6.04639 -2.20976 5.90322
                    CHANNELS 3 Zrotation Xrotation Yrotation
                    End Site
                    {
                      OFFSET 4.22376 -1.43895 0.606486
                    }
                  }
                  JOINT Bip001_L_Finger1
                  {
                    OFFSET 11.0826 -0.704819 -0.198153
                    CHANNELS 3 Zrotation Xrotation Yrotation
                    End Site
                    {
                      OFFSET 6.20028 -0.397518 -0.0787166
                    }
                  }
                }
              }
            }
          }
          JOINT Bip001_R_Clavicle
          {
            OFFSET -6.06036 -0.000563197 0.00835105
            CHANNELS 3 Zrotation Xrotation Yrotation
            JOINT Bip001_R_UpperArm
            {
              OFFSET -11.5509 -0.0599978 0.00190698
              CHANNELS 3 Zrotation Xrotation Yrotation
              JOINT Bip001_R_Forearm
              {
                OFFSET -25.9523 0.080682 -2.1559
                CHANNELS 3 Zrotation Xrotation Yrotation
                JOINT Bip001_R_Hand
                {
                  OFFSET -32.2476 0.153858 1.63991
                  CHANNELS 3 Zrotation Xrotation Yrotation
                  JOINT Bip001_R_Finger0
                  {
                    OFFSET -6.04641 -2.20974 5.90321
                    CHANNELS 3 Zrotation Xrotation Yrotation
                    End Site
                    {
                      OFFSET -4.22376 -1.43894 0.606474
                    }
                  }
                  JOINT Bip001_R_Finger1
                  {
                    OFFSET -11.0826 -0.704789 -0.198184
                    CHANNELS 3 Zrotation Xrotation Yrotation
                    End Site
                    {
                      OFFSET -6.20028 -0.397501 -0.0787338
                    }
                  }
                }
              }
            }
          }
          JOINT Bip001_Head
          {
            OFFSET 1.09673e-005 11.2744 2.05948
            CHANNELS 3 Zrotation Xrotation Yrotation
            End Site
            {
              OFFSET 2.89576e-005 20.8808 -2.77728e-005
            }
          }
        }
      }
    }
  }
}
MOTION
Frames:	12
Frame Time:	0.04
33.2873 95.8584 -29.1423 0.920487 -1.00844 -2.20211 -0.264409 2.76948 -0.369552 3.71316 -2.20926 5.87814 -0.431969 5.98221 -7.90742 6.35186 -0.279319 -0.310542 -2.87515 -5.7042 4.98413 -4.34553 -5.25795 -1.83339 0.0334481 12.6465 0.374659 -4.35282 -10.4741 5.9622 2.03787 -6.97438 2.13965 -0.502597 5.52043 -0.721114 -0.505953 5.52044 -0.724798 -1.26791 -1.10755 -1.93705 -22.9029 3.17174 -3.8253 -49.0275 41.6099 -2.25505 13.0257 2.23289 -25.0914 8.14343 1.1818 -2.73583 0 0 -0 -3.18055e-015 0 1.59028e-015 29.4886 9.30482 18.8688 38.5176 46.0888 14.7684 -8.87885 9.37751 8.20401 -9.66785 0.744678 3.4826 3.18055e-015 -1.59028e-015 -7.95139e-016 -0 -3.18056e-015 -0 -0.229539 9.53745 -2.14039 
33.2813 95.8655 -29.1431 0.9203 -1.00843 -2.21274 -0.264409 2.76948 -0.369552 3.70207 -2.13841 5.77736 -0.445436 5.84019 -7.84636 6.54084 -0.0422979 -0.334609 -2.81238 -5.86679 4.9217 -4.34661 -5.3026 -1.82974 0.0327832 12.7456 0.374805 -4.31926 -10.4735 5.99277 2.03787 -6.97438 2.13965 -0.502597 5.52043 -0.721114 -0.505953 5.52044 -0.724798 -1.247 -1.10755 -1.93705 -22.8991 3.17168 -3.84121 -49.0626 41.5588 -2.28074 13.0331 2.28506 -25.0408 8.14351 1.18348 -2.73583 0 6.36111e-015 -0 -3.18055e-015 6.36111e-015 1.59028e-015 29.4688 9.30491 18.8671 38.5381 46.0473 14.721 -8.90131 9.41254 8.22286 -9.71456 0.716377 3.48258 -6.36111e-015 3.18055e-015 2.38542e-015 -3.18055e-015 1.59028e-015 1.59028e-015 -0.229539 9.53745 -2.14039 
33.2786 95.8604 -29.1456 0.911614 -1.00842 -2.23284 -0.264409 2.76948 -0.369552 3.73374 -2.20848 5.83042 -0.440509 5.99478 -7.82596 6.36621 -0.265732 -0.312214 -2.87953 -5.73664 4.96553 -4.33129 -5.25188 -1.79592 0.0336079 12.6226 0.374624 -4.35141 -10.4709 5.96465 2.03787 -6.97438 2.13965 -0.502597 5.52043 -0.721114 -0.505953 5.52044 -0.724798 -1.24162 -1.11534 -1.93706 -22.9061 3.18163 -3.85308 -49.0494 41.5635 -2.27956 13.0211 2.26291 -25.0416 8.13599 1.21531 -2.73457 9.54166e-015 6.36111e-015 -1.59028e-015 6.36111e-015 3.18056e-015 -0 29.481 9.31143 18.832 38.4924 46.163 14.6064 -9.02111 9.33999 8.33493 -9.71244 0.740467 3.45878 3.18055e-015 0 7.95139e-016 3.18055e-015 -1.59028e-015 -0 -0.228517 9.55151 -2.14343 
33.2745 95.8642 -29.1454 0.892389 -1.01323 -2.23897 -0.264409 2.76948 -0.369552 3.7626 -2.20557 5.9967 -0.42256 6.02955 -7.95565 6.22842 -0.398341 -0.299043 -2.91867 -5.65367 5.00649 -4.30562 -5.2519 -1.80457 0.0228235 12.6396 0.386759 -4.32353 -10.4369 5.99253 2.03792 -6.97587 2.13965 -0.502597 5.52043 -0.721114 -0.505953 5.52044 -0.724798 -1.23793 -1.12934 -1.93706 -22.9229 3.19972 -3.86658 -49.0128 41.6327 -2.27943 13.0192 2.19152 -25.0554 8.1297 1.22138 -2.73691 6.36111e-015 0 -0 0 0 -0 29.493 9.31472 18.788 38.5131 46.1428 14.3695 -9.2199 9.349 8.51377 -9.72073 0.733344 3.49013 -0 -1.59028e-015 -0 -0 -1.59028e-015 -0 -0.22714 9.56925 -2.14777 
33.2732 95.8579 -29.1462 0.884313 -1.02047 -2.24855 -0.264438 2.76948 -0.368949 3.75653 -2.2104 6.00362 -0.424917 6.04413 -8.02432 6.43777 -0.230834 -0.317813 -2.86171 -5.79069 4.97036 -4.31115 -5.23479 -1.79984 0.0455606 12.6182 0.390293 -4.34831 -10.4666 5.9745 2.03698 -6.95346 2.13869 -0.502589 5.52104 -0.721115 -0.505945 5.52105 -0.724798 -1.23496 -1.16698 -1.94545 -22.9176 3.22766 -3.8382 -49.0161 41.635 -2.30207 13.0501 2.2546 -25.0566 8.20896 1.18073 -2.77353 3.18055e-015 6.36111e-015 -0 3.18055e-015 3.18056e-015 -1.59028e-015 29.4842 9.33733 18.7382 38.5398 46.0684 14.0703 -9.46429 9.3754 8.75836 -9.7522 0.747866 3.51041 6.36111e-015 -1.59028e-015 -1.59028e-015 -8.82782e-032 -3.18056e-015 -1.59028e-015 -0.225483 9.5941 -2.15219 
33.2721 95.8487 -29.1449 0.882193 -1.02365 -2.2707 -0.264517 2.76948 -0.367309 3.76551 -2.22652 6.3822 -0.391782 6.08709 -8.38679 6.56823 -0.184981 -0.326767 -2.79702 -5.86621 4.931 -4.29311 -5.25117 -1.80056 0.029431 12.6456 0.387454 -4.34411 -10.4849 6.01266 2.03683 -6.95556 2.13684 -0.502567 5.52279 -0.721117 -0.505923 5.5228 -0.7248 -1.22873 -1.17507 -1.95308 -22.9333 3.23118 -3.83533 -49.0046 41.5941 -2.30549 13.0301 2.25532 -25.0566 8.22905 1.20302 -2.76134 2.64834e-031 9.54166e-015 -1.59028e-015 -1.76556e-031 6.36111e-015 1.59028e-015 29.4862 9.34471 18.7274 38.5612 46.0602 13.6567 -9.79665 9.34992 9.06847 -9.80437 0.763424 3.55838 -8.82781e-032 3.18055e-015 1.59028e-015 3.18055e-015 3.18056e-015 7.95139e-016 -0.223906 9.6163 -2.1567 
33.2749 95.8521 -29.142 0.880331 -1.03136 -2.27357 -0.264597 2.76948 -0.36565 3.76633 -2.21797 6.60623 -0.364469 6.11759 -8.57907 6.38306 -0.342346 -0.309951 -2.87896 -5.74229 4.97263 -4.30469 -5.22696 -1.80182 0.0286606 12.6256 0.386528 -4.34297 -10.4819 6.00264 2.03674 -6.9597 2.13487 -0.502546 5.52448 -0.721119 -0.505901 5.52449 -0.724803 -1.23186 -1.23072 -1.93514 -22.9359 3.29023 -3.84179 -49.0213 41.5755 -2.27777 13.0558 2.31668 -25.0403 8.18144 1.17915 -2.7782 -3.18055e-015 6.36111e-015 -1.59028e-015 8.82782e-032 3.18056e-015 -1.59028e-015 29.5372 9.38853 18.6641 38.5969 46.0565 13.1423 -10.1968 9.24772 9.40033 -9.78012 0.829205 3.60119 -4.41391e-032 3.18055e-015 7.95139e-016 -6.62086e-032 4.77083e-015 7.95139e-016 -0.209908 9.72023 -2.14286 
33.2766 95.8601 -29.1398 0.878366 -1.03896 -2.27567 -0.264678 2.76948 -0.363981 3.74604 -2.16159 6.29177 -0.385385 6.00443 -8.29823 6.55263 -0.186976 -0.325517 -2.84442 -5.81496 4.95765 -4.30782 -5.21569 -1.80272 0.0448438 12.6149 0.38559 -4.32712 -10.45 5.99214 2.03661 -6.96262 2.13291 -0.502524 5.5262 -0.721121 -0.505879 5.5262 -0.724805 -1.27179 -1.21949 -1.93411 -22.8714 3.28984 -3.85378 -49.0438 41.6027 -2.30206 13.0499 2.30822 -24.9996 8.12614 1.22186 -2.78992 -0 -6.36111e-015 -0 -3.18055e-015 -6.36111e-015 -0 29.5488 9.36262 18.6461 38.6612 45.9925 12.5962 -10.6291 9.20962 9.79572 -9.78955 0.874573 3.6328 -1.32417e-031 -3.18055e-015 -2.38542e-015 0 0 -2.38542e-015 -0.155218 9.65299 -2.16556 
33.2738 95.8589 -29.1437 0.875191 -1.03193 -2.2617 -0.264759 2.76948 -0.36231 3.75326 -2.15376 6.2544 -0.400072 5.9669 -8.27042 6.61246 -0.130943 -0.332433 -2.78445 -5.8247 4.93537 -4.30282 -5.22324 -1.80166 0.0471727 12.6175 0.384812 -4.32298 -10.4462 5.99623 2.03637 -6.96181 2.13112 -0.502501 5.52801 -0.721123 -0.505797 5.52801 -0.724357 -1.27297 -1.2642 -1.93329 -22.8695 3.34068 -3.87061 -49.0481 41.6125 -2.27946 13.036 2.27529 -25.0249 8.14334 1.24099 -2.77927 -0 0 1.59028e-015 -3.18055e-015 3.18056e-015 -0 29.574 9.39891 18.6 38.7034 45.904 11.9306 -11.1354 9.16231 10.2795 -9.81676 0.916532 3.69704 -3.18055e-015 0 -0 0 0 -7.95139e-016 -0.119042 9.67331 -2.17544 
33.2742 95.8591 -29.1552 0.871889 -1.02184 -2.2638 -0.264839 2.76948 -0.360643 3.77518 -2.21697 6.35704 -0.382054 6.05727 -8.33521 6.31519 -0.361467 -0.303969 -2.90797 -5.70469 4.99381 -4.29814 -5.22435 -1.78022 0.0479118 12.5656 0.383931 -4.34527 -10.4458 5.95191 2.0358 -6.95127 2.12963 -0.502717 5.53001 -0.718621 -0.50573 5.53001 -0.717181 -1.27198 -1.30209 -1.93295 -22.8722 3.37733 -3.8534 -49.0096 41.6113 -2.31197 13.0441 2.29051 -25.0408 8.13178 1.2171 -2.7984 9.54166e-015 -3.18055e-015 1.59028e-015 6.36111e-015 0 -0 29.5731 9.42827 18.5723 38.7247 45.8562 11.261 -11.6827 9.00958 10.768 -9.85625 0.937353 3.767 9.54166e-015 -3.18055e-015 -1.59028e-015 9.54166e-015 -3.18056e-015 -7.95139e-016 -0.0546802 9.67173 -2.19828 
33.274 95.8598 -29.1597 0.868033 -1.02188 -2.26581 -0.26492 2.76948 -0.35898 3.76556 -2.18922 6.1393 -0.419609 5.97954 -8.1375 6.42749 -0.232864 -0.316536 -2.83604 -5.77351 4.9495 -4.29385 -5.22852 -1.79488 0.0447525 12.565 0.382079 -4.32937 -10.4433 5.99731 2.03539 -6.9435 2.12865 -0.50361 5.53226 -0.70907 -0.505232 5.53226 -0.709104 -1.22262 -1.30382 -1.96757 -22.9146 3.37173 -3.84325 -49.0012 41.6111 -2.30636 13.0539 2.31078 -25.0433 8.15674 1.20152 -2.81034 3.18055e-015 -3.18055e-015 -0 3.18055e-015 -3.18056e-015 1.59028e-015 29.5263 9.44617 18.5854 38.7473 45.8748 10.5195 -12.2957 8.79542 11.2822 -9.78095 1.06944 3.86401 3.18055e-015 0 -0 2.20695e-032 -1.59028e-015 7.95139e-016 -0.0943846 9.69574 -2.20704 
33.268 95.8555 -29.1635 0.852623 -1.02201 -2.26731 -0.265001 2.76948 -0.357288 3.77286 -2.20448 6.07542 -0.428477 6.00413 -8.10686 6.95682 0.0529586 -0.363713 -2.67139 -5.98364 4.85059 -4.26346 -5.22284 -1.79499 0.0345073 12.5695 0.405056 -4.34283 -10.447 5.97681 2.03449 -6.93061 2.12512 -0.503677 5.54324 -0.706974 -0.504047 5.54324 -0.704088 -1.21205 -1.30946 -1.97947 -22.9238 3.37206 -3.82649 -48.9763 41.6269 -2.33036 13.0271 2.25448 -25.0279 8.10467 1.19747 -2.79212 -3.18055e-015 3.18055e-015 -1.59028e-015 -3.18055e-015 6.36111e-015 -1.59028e-015 29.5088 9.45143 18.5954 38.757 45.8939 9.74165 -12.963 8.6202 11.8824 -9.76924 1.11637 3.90068 -2.20695e-032 -1.59028e-015 -7.95139e-016 3.18055e-015 0 -0 -0.118401 9.7189 -2.20621 
